<svg xmlns="http://www.w3.org/2000/svg" width="200" height="150" viewBox="0 0 200 150"><rect width="100%" height="100%" fill="#DDDDDD"/><path fill="#999999" d="M57.945 37.135v26.03h-4.86v-26.03h4.86Zm9.56 26.03h-4.44v-18.47h2.71q.87 0 1.14.81l.29 1.37q.48-.54 1.01-.99.53-.45 1.14-.77.6-.33 1.29-.52.7-.19 1.52-.19 1.75 0 2.88.95 1.12.94 1.68 2.51.43-.92 1.08-1.58.65-.65 1.42-1.07.77-.41 1.65-.61.87-.2 1.75-.2 1.53 0 2.72.47 1.19.47 2 1.37.81.9 1.23 2.2.42 1.29.42 2.97v11.75h-4.44v-11.75q0-1.77-.78-2.66-.77-.89-2.26-.89-.69 0-1.27.23-.59.24-1.03.68-.44.44-.69 1.11-.25.66-.25 1.53v11.75h-4.47v-11.75q0-1.86-.74-2.7-.75-.85-2.19-.85-.97 0-1.81.48-.84.47-1.56 1.3v13.52Zm35.46-4.77v-3.11q-1.92.09-3.24.33-1.31.24-2.1.62-.8.38-1.14.88-.34.51-.34 1.1 0 1.17.69 1.67.7.51 1.81.51 1.37 0 2.37-.5 1-.49 1.95-1.5Zm-9.39-9.7-.8-1.42q3.19-2.92 7.67-2.92 1.62 0 2.9.53 1.28.53 2.16 1.48.88.94 1.34 2.26.46 1.31.46 2.88v11.66h-2.02q-.63 0-.97-.19-.34-.19-.54-.76l-.39-1.34q-.71.63-1.37 1.11-.67.48-1.39.8-.72.33-1.54.5-.82.17-1.81.17-1.17 0-2.16-.32-.99-.31-1.71-.94-.72-.63-1.11-1.57-.4-.93-.4-2.18 0-.7.24-1.39.23-.69.76-1.32.53-.63 1.38-1.19.84-.56 2.08-.97 1.23-.42 2.87-.68 1.64-.26 3.74-.31v-1.08q0-1.86-.79-2.75-.79-.89-2.29-.89-1.08 0-1.79.25t-1.25.57q-.54.31-.98.57-.44.25-.98.25-.47 0-.79-.25-.33-.24-.52-.56Zm24.66 4.79q.83 0 1.44-.23.61-.22 1.01-.62.41-.4.62-.95.2-.56.2-1.23 0-1.37-.82-2.17-.81-.8-2.45-.8-1.64 0-2.46.8-.82.8-.82 2.17 0 .65.21 1.21.21.56.61.96.41.41 1.03.63.62.23 1.43.23Zm5.02 10.51q0-.54-.32-.88-.33-.35-.89-.54-.55-.18-1.3-.27-.75-.09-1.59-.14-.83-.04-1.72-.08t-1.74-.14q-.74.41-1.2.97-.46.56-.46 1.29 0 .49.25.91.24.43.77.73.53.31 1.38.48.84.17 2.07.17 1.24 0 2.14-.19.9-.19 1.48-.52.59-.33.86-.79t.27-1Zm-.88-18.67h5.31v1.66q0 .79-.96.97l-1.65.31q.38.95.38 2.08 0 1.37-.55 2.48-.55 1.11-1.52 1.88-.98.77-2.3 1.2-1.32.42-2.85.42-.54 0-1.05-.05-.5-.06-.99-.15-.86.52-.86 1.17 0 .56.51.82.52.26 1.36.37.85.11 1.93.13 1.08.03 2.21.12 1.14.09 2.22.32 1.08.22 1.92.71.85.48 1.36 1.32.51.84.51 2.15 0 1.23-.6 2.38t-1.75 2.05q-1.14.9-2.8 1.45-1.67.55-3.79.55-2.09 0-3.64-.41-1.55-.4-2.57-1.08-1.03-.67-1.53-1.55-.51-.89-.51-1.84 0-1.3.79-2.17.78-.87 2.15-1.39-.74-.38-1.17-1.01-.43-.63-.43-1.66 0-.41.15-.85t.45-.88q.3-.43.75-.82.45-.38 1.06-.69-1.41-.75-2.21-2.01-.8-1.26-.8-2.96 0-1.36.55-2.47t1.53-1.89q.98-.78 2.32-1.2 1.34-.41 2.93-.41 1.19 0 2.23.24t1.91.71Zm11.63 6.48h8.38q0-.86-.24-1.63-.24-.76-.73-1.34-.48-.57-1.23-.91-.75-.33-1.74-.33-1.92 0-3.03 1.1-1.11 1.1-1.41 3.11Zm11.34 2.68h-11.43q.1 1.43.5 2.46.4 1.04 1.04 1.71.65.68 1.54 1.01.89.33 1.97.33t1.87-.25q.78-.25 1.36-.56.59-.3 1.03-.56.44-.25.86-.25.55 0 .82.42l1.28 1.62q-.74.86-1.65 1.44-.92.59-1.92.94-1 .35-2.04.5-1.03.14-2 .14-1.93 0-3.58-.64-1.66-.64-2.88-1.89-1.23-1.25-1.93-3.1-.7-1.84-.7-4.27 0-1.89.61-3.56.61-1.66 1.75-2.89 1.15-1.24 2.79-1.96 1.65-.72 3.72-.72 1.75 0 3.22.56 1.48.56 2.54 1.63 1.06 1.07 1.67 2.63.6 1.56.6 3.55 0 1.01-.22 1.36-.21.35-.82.35Zm-80.65 25.85h3.65v26.03h-4.27v-16.81q0-1.01.11-2.18l-7.86 14.78q-.56 1.06-1.71 1.06h-.69q-1.15 0-1.71-1.06l-7.95-14.83q.05.59.09 1.17.03.57.03 1.06v16.81h-4.26v-26.03h3.65q.32 0 .56.02.23.02.42.09.19.07.34.23.16.17.3.44l7.79 14.45q.31.58.57 1.19.26.61.51 1.26.26-.67.53-1.29t.57-1.2l7.69-14.41q.14-.27.3-.44.17-.16.35-.23.19-.07.43-.09.23-.02.56-.02Zm8.89 7.56h4.46v18.47h-4.46v-18.47Zm5.07-5.38q0 .58-.23 1.08-.23.5-.62.88t-.91.6q-.52.23-1.12.23-.57 0-1.09-.23-.51-.22-.89-.6-.37-.38-.6-.88-.22-.5-.22-1.08 0-.59.22-1.12.23-.52.6-.9.38-.37.89-.6.52-.22 1.09-.22.6 0 1.12.22.52.23.91.6.39.38.62.9.23.53.23 1.12Zm16.2 7.38-1 1.6q-.18.29-.38.41-.2.11-.51.11-.32 0-.69-.18-.37-.18-.85-.4-.49-.23-1.11-.41-.62-.18-1.47-.18-1.31 0-2.06.56t-.75 1.46q0 .59.39 1 .39.4 1.03.71.64.31 1.45.55.81.24 1.64.53.84.29 1.65.66.81.37 1.45.93.64.57 1.03 1.36.38.79.38 1.91 0 1.33-.47 2.46-.48 1.12-1.42 1.94-.93.82-2.31 1.28-1.38.46-3.18.46-.95 0-1.86-.17-.91-.17-1.75-.48-.83-.31-1.55-.72-.71-.41-1.25-.9l1.03-1.69q.2-.31.47-.47.27-.16.68-.16.42 0 .78.23.37.24.86.51t1.14.5q.66.23 1.67.23.79 0 1.36-.18.56-.19.93-.5t.54-.71q.17-.41.17-.84 0-.65-.38-1.06-.39-.41-1.03-.72t-1.46-.55q-.82-.24-1.67-.53-.86-.29-1.68-.67-.81-.39-1.45-.99-.64-.59-1.03-1.45-.39-.87-.39-2.09 0-1.14.45-2.16.45-1.03 1.33-1.79.87-.77 2.18-1.23 1.3-.46 3.01-.46 1.91 0 3.47.63 1.57.63 2.61 1.66Zm15.83 0-1.01 1.6q-.18.29-.38.41-.2.11-.5.11-.33 0-.7-.18-.37-.18-.85-.4-.49-.23-1.11-.41-.62-.18-1.47-.18-1.31 0-2.06.56-.74.56-.74 1.46 0 .59.38 1 .39.4 1.03.71.64.31 1.45.55.81.24 1.65.53.83.29 1.64.66.81.37 1.45.93.64.57 1.03 1.36.38.79.38 1.91 0 1.33-.47 2.46-.48 1.12-1.42 1.94-.93.82-2.31 1.28-1.38.46-3.18.46-.95 0-1.86-.17-.91-.17-1.74-.48-.84-.31-1.55-.72-.71-.41-1.25-.9l1.02-1.69q.2-.31.47-.47.27-.16.68-.16.42 0 .79.23.37.24.85.51.49.27 1.15.5.65.23 1.66.23.79 0 1.36-.18.57-.19.94-.5.36-.31.54-.71.17-.41.17-.84 0-.65-.39-1.06-.39-.41-1.03-.72t-1.45-.55q-.82-.24-1.68-.53-.85-.29-1.67-.67-.82-.39-1.46-.99-.64-.59-1.03-1.45-.38-.87-.38-2.09 0-1.14.45-2.16.45-1.03 1.32-1.79.87-.77 2.18-1.23 1.3-.46 3.01-.46 1.91 0 3.48.63 1.56.63 2.61 1.66Zm3.69-2h4.46v18.47h-4.46v-18.47Zm5.07-5.38q0 .58-.23 1.08-.24.5-.62.88-.39.38-.91.6-.52.23-1.12.23-.57 0-1.09-.23-.51-.22-.89-.6t-.6-.88q-.23-.5-.23-1.08 0-.59.23-1.12.22-.52.6-.9.38-.37.89-.6.52-.22 1.09-.22.6 0 1.12.22.52.23.91.6.38.38.62.9.23.53.23 1.12Zm7.78 6.19.3 1.46q.56-.56 1.18-1.04.62-.47 1.32-.8.69-.34 1.48-.53t1.73-.19q1.51 0 2.68.52 1.17.51 1.96 1.44.78.92 1.18 2.21.41 1.29.41 2.84v11.75h-4.45v-11.75q0-1.7-.77-2.62-.78-.93-2.36-.93-1.15 0-2.16.52-1.01.52-1.91 1.42v13.36h-4.44v-18.47h2.71q.87 0 1.14.81Zm23.2 7.98q.83 0 1.44-.23.61-.22 1.02-.62.4-.4.61-.95.21-.56.21-1.23 0-1.37-.82-2.17-.82-.8-2.46-.8-1.64 0-2.46.8-.82.8-.82 2.17 0 .65.21 1.21.21.56.61.96.41.41 1.03.63.62.23 1.43.23Zm5.02 10.51q0-.54-.32-.88-.33-.35-.88-.53-.56-.19-1.31-.28-.75-.09-1.58-.14-.84-.04-1.73-.08t-1.74-.14q-.74.41-1.19.97-.46.56-.46 1.29 0 .49.24.91.24.43.77.73.53.31 1.38.48.85.17 2.07.17 1.24 0 2.14-.19.9-.19 1.49-.52.58-.33.85-.79t.27-1Zm-.88-18.67h5.31v1.66q0 .79-.95.97l-1.66.31q.38.95.38 2.08 0 1.37-.55 2.48-.55 1.11-1.52 1.88-.97.77-2.3 1.2-1.32.42-2.85.42-.54 0-1.04-.05-.51-.06-.99-.15-.87.52-.87 1.17 0 .56.52.82.51.26 1.35.37.85.11 1.93.14 1.08.02 2.21.11 1.14.09 2.22.32 1.08.22 1.92.71.85.48 1.36 1.32.52.84.52 2.15 0 1.23-.61 2.38-.6 1.15-1.74 2.05-1.15.9-2.81 1.45-1.67.55-3.79.55-2.09 0-3.64-.41-1.54-.4-2.57-1.08-1.03-.67-1.53-1.55-.5-.89-.5-1.84 0-1.3.78-2.17.78-.87 2.15-1.39-.74-.38-1.17-1.01-.43-.63-.43-1.66 0-.41.15-.85t.45-.88q.3-.43.75-.81.45-.39 1.06-.7-1.4-.75-2.2-2.01-.81-1.26-.81-2.96 0-1.36.55-2.47t1.53-1.89q.98-.78 2.33-1.2 1.34-.41 2.92-.41 1.19 0 2.23.24 1.05.24 1.91.71Z"/></svg>