<svg width="934" height="358" version="1.1" xmlns="http://www.w3.org/2000/svg" desc="Created with imagetracer.js version 1.2.6" ><path fill="rgb(0,0,0)" stroke="rgb(0,0,0)" stroke-width="1" opacity="0" d="M 0 0 L 934 0 L 934 358 L 0 358 L 0 0 Z M 10 33 L 10 322 L 193 322 L 193 322 L 193 302 L 193 300 L 190 286 L 185 279 L 182 276 L 55 276 L 56 275 L 56 82 L 56 80 L 150 80 L 154 82 Q 156 81 155 84 L 165 88 L 167 92 Q 166 94 169 93 L 174 104 Q 173 106 176 105 L 178 116 L 181 116 Q 179 111 183 112 L 184 105 L 187 98 L 190 96 L 190 94 L 194 88 L 203 82 L 210 80 L 339 80 L 339 80 L 339 60 L 339 58 L 336 44 L 332 38 L 326 33 L 212 33 L 199 37 Q 196 36 197 39 L 193 41 L 189 47 L 186 48 L 183 56 Q 184 60 181 59 L 180 68 L 177 60 Q 178 55 176 56 L 176 55 L 174 54 L 172 49 L 170 47 L 170 45 Q 167 46 168 44 Q 168 40 163 40 L 161 37 L 149 33 L 10 33 Z M 96 113 L 95 114 L 93 115 L 93 137 L 95 138 L 119 138 L 120 137 L 120 115 L 119 113 L 96 113 Z M 410 113 L 408 115 L 408 138 L 434 138 L 434 115 L 433 113 L 410 113 Z M 129 114 L 129 244 L 131 245 L 155 245 L 156 244 L 156 115 L 156 114 L 129 114 Z M 314 114 L 314 245 L 340 245 L 340 215 L 352 203 L 353 203 L 372 244 L 374 245 L 402 245 Q 388 214 371 185 L 403 149 L 372 148 L 341 184 L 340 184 L 340 114 L 314 114 Z M 511 114 L 511 158 Q 504 149 492 146 Q 469 143 460 153 Q 450 160 446 173 L 443 187 L 443 205 L 445 216 L 450 228 L 458 238 L 470 245 L 477 247 Q 496 250 505 242 L 512 236 L 512 245 L 537 245 L 537 115 L 537 114 L 511 114 Z M 211 146 L 199 151 L 193 158 L 191 159 L 191 148 L 166 148 L 166 245 L 167 245 L 192 245 L 192 185 Q 195 183 193 178 L 195 174 Q 198 169 204 168 L 217 169 L 221 174 L 223 184 L 223 245 L 249 245 L 249 183 L 252 175 Q 255 169 263 167 Q 269 166 272 169 L 276 174 L 279 183 L 279 245 L 304 245 L 305 244 L 305 173 L 299 159 Q 292 149 280 146 Q 264 144 256 149 L 246 160 L 244 158 Q 240 150 232 147 Q 223 144 211 146 Z M 692 146 L 684 148 L 675 154 L 671 159 L 670 150 L 669 148 L 645 148 L 645 245 L 646 245 L 670 245 L 671 244 L 671 182 L 674 175 Q 678 169 686 168 Q 698 167 703 171 L 706 180 L 706 245 L 732 245 L 732 170 L 726 157 Q 717 143 692 146 Z M 872 146 L 860 149 L 852 154 L 845 162 L 841 175 Q 840 180 843 181 L 864 181 L 866 180 L 866 176 L 869 170 L 879 166 Q 890 165 896 169 Q 900 171 899 179 Q 896 183 890 185 L 866 188 L 850 194 Q 840 200 838 213 Q 836 230 843 238 Q 849 245 861 247 L 880 247 L 885 246 Q 894 243 900 237 L 901 243 L 902 245 L 925 245 L 925 173 Q 923 162 917 155 Q 911 150 902 147 L 897 146 L 872 146 Z M 95 148 L 93 150 L 93 244 L 95 245 L 119 245 L 120 244 L 120 150 L 119 148 L 95 148 Z M 408 148 L 408 245 L 409 245 L 434 245 L 434 149 L 434 148 L 408 148 Z M 547 148 L 547 219 Q 549 229 555 237 Q 561 244 573 247 Q 593 249 603 241 L 609 234 L 610 234 L 610 245 L 635 245 L 635 149 L 635 148 L 609 148 L 609 208 L 606 217 Q 602 223 594 225 Q 585 226 580 223 L 574 216 Q 575 211 573 210 L 573 148 L 547 148 Z M 743 148 L 743 219 L 749 233 Q 757 242 771 246 Q 791 249 800 240 L 803 236 L 804 236 L 804 254 L 801 260 L 792 267 Q 778 269 773 263 L 769 259 L 767 251 L 767 249 L 743 249 Q 742 266 750 276 L 758 283 L 768 288 L 777 290 L 795 290 L 800 289 L 817 280 Q 827 272 830 257 L 830 149 L 830 148 L 806 148 L 804 150 L 804 213 L 802 217 L 797 222 L 787 225 L 779 224 L 775 222 L 770 216 Q 771 211 769 210 L 769 148 L 743 148 Z M 226 272 L 218 278 L 217 281 L 218 283 L 218 319 L 217 321 L 252 321 L 254 320 L 256 317 L 259 315 L 261 313 L 261 288 L 257 290 L 253 295 L 251 296 L 251 310 L 245 310 L 244 310 L 244 288 L 241 288 Q 242 291 240 290 L 236 295 L 234 296 L 234 310 L 226 310 L 226 276 L 227 275 L 226 272 Z M 360 272 L 360 274 L 358 274 Q 359 277 357 276 L 354 280 L 347 286 Q 348 288 346 287 L 341 293 L 338 295 L 338 304 L 363 304 L 364 307 L 363 310 L 337 310 L 337 288 L 324 288 L 316 297 L 316 299 L 316 310 L 306 310 L 306 295 L 307 294 L 305 293 L 297 301 L 297 321 L 325 321 L 325 319 L 325 317 L 324 314 L 325 312 L 325 299 L 324 298 L 328 296 L 328 312 L 327 313 L 330 314 L 332 318 L 337 321 L 364 321 L 366 320 L 368 317 L 371 315 L 373 313 L 373 294 L 353 294 L 356 292 Q 355 289 358 290 L 362 286 L 361 283 Q 360 277 362 276 Q 363 271 360 272 Z M 420 272 L 419 275 Q 420 277 418 276 L 413 281 L 413 310 L 412 288 L 395 288 L 390 291 L 386 297 L 386 310 L 381 310 L 381 312 L 377 315 L 373 321 L 388 321 L 390 319 L 390 321 L 441 321 L 443 320 L 445 317 Q 446 313 450 314 L 450 310 L 434 310 L 434 296 L 448 296 L 449 297 L 450 289 L 433 288 L 425 296 L 425 310 L 423 310 L 424 309 L 424 274 L 420 272 Z M 278 276 L 277 277 L 272 277 L 272 282 L 268 283 L 268 288 L 270 288 Q 271 284 273 287 Q 275 284 280 284 L 279 280 Q 282 278 278 276 Z M 254 278 L 253 279 Q 250 278 251 281 L 249 281 L 249 285 Q 250 288 255 288 L 258 284 Q 260 285 259 282 L 254 278 Z M 275 288 L 267 297 L 270 296 L 280 296 L 281 298 L 281 310 L 272 310 L 271 312 L 270 312 L 267 316 L 264 318 L 262 321 L 281 321 L 283 320 L 290 313 L 290 292 L 290 290 L 290 288 L 275 288 Z M 449 319 L 444 321 L 442 321 Q 438 322 439 327 L 445 326 Q 446 322 448 325 L 451 321 Q 452 318 449 319 Z M 232 322 Q 228 323 229 328 L 232 329 L 235 328 L 242 329 Q 244 328 243 323 L 238 322 L 235 324 Q 236 321 232 322 Z " /><path fill="rgb(0,0,0)" stroke="rgb(0,0,0)" stroke-width="1" opacity="0" d="M 489.5 168 Q 503.4 167.6 508 176.5 L 512 187.5 L 512 206.5 Q 509.4 217.4 501.5 223 Q 496.1 226.6 485.5 225 L 476 218.5 L 471 208.5 L 470 189.5 L 474 176.5 L 479.5 171 L 489.5 168 Z " /><path fill="rgb(0,0,0)" stroke="rgb(0,0,0)" stroke-width="1" opacity="0" d="M 898.5 199 L 900 199.5 L 899 200.5 L 899 212.5 Q 896.1 220.6 889.5 225 L 882.5 228 L 870.5 228 L 865 223.5 L 864 216.5 L 867 209 L 879.5 204 Q 891.4 203.9 898.5 199 Z " /><path fill="rgb(0,0,0)" stroke="rgb(0,0,0)" stroke-width="1" opacity="0" d="M 396 296 Q 400.6 294.8 402 297.5 L 401 298.5 L 401 310 Q 397.2 308.5 398 311.5 L 391 317.5 L 396 312.5 L 396 296 Z " /><path fill="rgb(72,162,149)" stroke="rgb(72,162,149)" stroke-width="1" opacity="0.39215686274509803" d="M 211.5 33 L 210.5 35 Q 200.8 34.8 196.5 40 L 197 38.5 Q 196.3 36.3 198.5 37 L 211.5 33 Z " /><path fill="rgb(72,162,149)" stroke="rgb(72,162,149)" stroke-width="1" opacity="0.39215686274509803" d="M 149.5 34 L 153.5 34 L 161 37.5 L 158.5 38 Q 156.2 34.2 149.5 35 L 149.5 34 Z " /><path fill="rgb(72,162,149)" stroke="rgb(72,162,149)" stroke-width="1" opacity="0.39215686274509803" d="M 326.5 34 L 332 37.5 L 336 43.5 L 339 57.5 L 339 59.5 L 338.5 64 L 337 58.5 L 338 56.5 L 334 42.5 L 327.5 35 L 326.5 34 Z " /><path fill="rgb(72,162,149)" stroke="rgb(72,162,149)" stroke-width="1" opacity="0.39215686274509803" d="M 164.5 40 L 167.5 44 L 164.5 40 Z " /><path fill="rgb(72,162,149)" stroke="rgb(72,162,149)" stroke-width="1" opacity="0.39215686274509803" d="M 192.5 41 L 194 41.5 L 190.5 44 L 192.5 41 Z " /><path fill="rgb(72,162,149)" stroke="rgb(72,162,149)" stroke-width="1" opacity="0.39215686274509803" d="M 169.5 47 L 172 48.5 L 174 52.5 L 171 50.5 L 169.5 47 Z " /><path fill="rgb(72,162,149)" stroke="rgb(72,162,149)" stroke-width="1" opacity="0.39215686274509803" d="M 188.5 47 L 187 49.5 L 184.5 54 L 185 52.5 L 186 48 L 188.5 47 Z " /><path fill="rgb(72,162,149)" stroke="rgb(72,162,149)" stroke-width="1" opacity="0.39215686274509803" d="M 175.5 56 Q 178.5 55.1 177 59.5 L 179.5 68 L 181.5 59 L 182 63.5 L 181 69 L 178 67.5 L 175.5 56 Z " /><path fill="rgb(72,162,149)" stroke="rgb(72,162,149)" stroke-width="1" opacity="0.39215686274509803" d="M 55.5 79 L 150 79.5 L 55.5 80 L 55.5 79 Z " /><path fill="rgb(72,162,149)" stroke="rgb(72,162,149)" stroke-width="1" opacity="0.39215686274509803" d="M 209.5 79 L 339 79.5 L 209.5 80 L 208.5 81 L 209.5 79 Z " /><path fill="rgb(72,162,149)" stroke="rgb(72,162,149)" stroke-width="1" opacity="0.39215686274509803" d="M 55.5 81 L 56 274.5 L 55 274.5 L 55.5 81 Z " /><path fill="rgb(72,162,149)" stroke="rgb(72,162,149)" stroke-width="1" opacity="0.39215686274509803" d="M 155.5 82 L 162 85.5 L 161.5 87 Q 159.6 83.4 155 84 L 155.5 82 Z " /><path fill="rgb(72,162,149)" stroke="rgb(72,162,149)" stroke-width="1" opacity="0.39215686274509803" d="M 201.5 82 L 200.5 84 L 195.5 88 L 199.5 83 L 201.5 82 Z " /><path fill="rgb(72,162,149)" stroke="rgb(72,162,149)" stroke-width="1" opacity="0.39215686274509803" d="M 165.5 88 Q 168.5 88.5 168 92.5 L 167 92.5 L 165.5 88 Z " /><path fill="rgb(72,162,149)" stroke="rgb(72,162,149)" stroke-width="1" opacity="0.39215686274509803" d="M 193.5 89 L 190 93.5 Q 191.1 96.8 188.5 96 L 187 96.5 L 193.5 89 Z " /><path fill="rgb(72,162,149)" stroke="rgb(72,162,149)" stroke-width="1" opacity="0.39215686274509803" d="M 170.5 96 L 176 104.5 L 174 105 L 170.5 96 Z " /><path fill="rgb(72,162,149)" stroke="rgb(72,162,149)" stroke-width="1" opacity="0.39215686274509803" d="M 185.5 100 L 185 101.5 L 183 112 L 181 111.5 Q 183.7 109.2 183 103.5 L 185.5 100 Z " /><path fill="rgb(72,162,149)" stroke="rgb(72,162,149)" stroke-width="1" opacity="0.39215686274509803" d="M 177.5 112 L 179 115 L 181 115.5 L 178 116 L 177.5 112 Z " /><path fill="rgb(72,162,149)" stroke="rgb(72,162,149)" stroke-width="1" opacity="0.39215686274509803" d="M 225.5 272 L 227 274.5 L 224.5 275 Q 222.3 274.3 223 276.5 L 217.5 281 L 218 279.5 Q 217.3 277.3 219.5 278 L 225.5 272 Z " /><path fill="rgb(72,162,149)" stroke="rgb(72,162,149)" stroke-width="1" opacity="0.39215686274509803" d="M 360 272 Q 363 270.8 362 274.5 L 360.5 274 L 340 294.5 L 340 303 L 363.5 303 L 363.5 304 L 338 304 L 338 294.5 L 341 293 L 345.5 287 Q 347.8 287.8 347 285.5 L 354 279.5 L 356.5 276 Q 359.1 276.7 358 274 L 360 274 L 360 272 Z " /><path fill="rgb(72,162,149)" stroke="rgb(72,162,149)" stroke-width="1" opacity="0.39215686274509803" d="M 420 272 L 424 273.5 L 424 308.5 L 423 309.5 L 427 311.5 L 422 312 L 422 275.5 L 420.5 275 L 414 282.5 L 414 312 L 410 311.5 L 410 289 L 395.5 289 L 388 295.5 L 387 297.5 L 387 312 L 381.5 312 L 376 316 L 375 318.5 L 387.5 319 L 395 311.5 L 395.5 297 L 396.5 313 L 398 310 L 401 309.5 L 401 298.5 L 403 297.5 L 403 311.5 Q 403 312.5 398.5 312 L 392.5 319 L 441.5 319 L 448 312.5 L 433 312 L 433.5 310 L 450 310 Q 452.1 315.2 447.5 314 L 442.5 320 L 441 320.5 L 442 322.5 L 441 325 L 449.5 322 L 447.5 325 Q 446 322.5 444.5 326 L 439 327 Q 438 322.8 441 321.5 L 390 321 L 389.5 319 L 387.5 321 L 373 321 L 376.5 315 L 381 311.5 L 381 310 L 386 309.5 L 386 296.5 L 390 291 L 394.5 288 L 412 288 L 412.5 310 L 413 280.5 L 417.5 276 Q 419.8 276.8 419 274.5 L 420 272 Z " /><path fill="rgb(72,162,149)" stroke="rgb(72,162,149)" stroke-width="1" opacity="0.39215686274509803" d="M 55.5 276 L 181.5 276 L 185 278.5 L 190 285.5 L 193 299.5 L 192 299.5 L 188 284.5 L 181.5 277 L 55.5 277 L 55.5 276 Z " /><path fill="rgb(72,162,149)" stroke="rgb(72,162,149)" stroke-width="1" opacity="0.39215686274509803" d="M 277.5 276 L 279.5 279 L 277 277.5 L 277.5 276 Z " /><path fill="rgb(72,162,149)" stroke="rgb(72,162,149)" stroke-width="1" opacity="0.39215686274509803" d="M 253.5 278 L 259 282 Q 260.1 284.7 257.5 284 L 254.5 288 Q 249.5 288.5 249 284.5 L 249 281 L 251 281 Q 249.9 278.3 252.5 279 L 253.5 278 Z M 253 280 L 250 284 L 254 286 Q 257 285 256 281 L 253 280 Z " /><path fill="rgb(72,162,149)" stroke="rgb(72,162,149)" stroke-width="1" opacity="0.39215686274509803" d="M 274.5 279 Q 276.8 278.3 276 280.5 L 274.5 279 Z " /><path fill="rgb(72,162,149)" stroke="rgb(72,162,149)" stroke-width="1" opacity="0.39215686274509803" d="M 272.5 281 L 273 283 L 269 284 Q 267.9 286.7 270.5 286 L 273.5 285 L 272.5 287 Q 271 284.5 269.5 288 L 268 288 L 268 283 L 272.5 281 Z " /><path fill="rgb(72,162,149)" stroke="rgb(72,162,149)" stroke-width="1" opacity="0.39215686274509803" d="M 278.5 282 L 279.5 284 L 275.5 285 L 275.5 284 L 278.5 282 Z " /><path fill="rgb(72,162,149)" stroke="rgb(72,162,149)" stroke-width="1" opacity="0.39215686274509803" d="M 360.5 285 L 362 285.5 L 356 290 L 354.5 293 L 353 293.5 L 373 294 L 373 312.5 L 370.5 315 L 368 316.5 L 365.5 320 L 363.5 321 L 336.5 321 L 332 317.5 L 329.5 314 L 327 312.5 L 328.5 312 L 335.5 319 L 364.5 319 L 372 311.5 L 372 296 L 351.5 296 L 351 294.5 L 360.5 285 Z " /><path fill="rgb(72,162,149)" stroke="rgb(72,162,149)" stroke-width="1" opacity="0.39215686274509803" d="M 241 288 L 244 288.5 L 244 310 L 251 310 L 251 295.5 L 252.5 295 L 256.5 290 L 261 288 L 261 312.5 L 258.5 315 L 256 316.5 L 253.5 320 L 251.5 321 L 217 321 L 217.5 319 L 252.5 319 L 260 311.5 L 260 290 L 257 291.5 L 254.5 295 Q 252.3 294.3 253 296.5 L 252 297.5 L 252 312 L 243.5 312 L 242 310.5 L 243 308.5 L 242 307.5 L 242 292.5 L 243 290 L 235 296.5 L 235 312 L 225.5 312 L 226.5 310 L 234 310 L 234 295.5 L 235.5 295 L 239.5 290 Q 242.1 290.7 241 288 Z " /><path fill="rgb(72,162,149)" stroke="rgb(72,162,149)" stroke-width="1" opacity="0.39215686274509803" d="M 274.5 288 L 289.5 288 L 290 289.5 L 288.5 289 L 274.5 289 L 274 290.5 L 269 294 L 267.5 297 L 267 295.5 L 274.5 288 Z " /><path fill="rgb(72,162,149)" stroke="rgb(72,162,149)" stroke-width="1" opacity="0.39215686274509803" d="M 323.5 288 L 337 288 L 337 310 L 363.5 310 L 364 312 L 336 312 L 336 290.5 L 334.5 289 L 324.5 289 L 316 296.5 L 323.5 288 Z " /><path fill="rgb(72,162,149)" stroke="rgb(72,162,149)" stroke-width="1" opacity="0.39215686274509803" d="M 432.5 288 L 450 288.5 L 433.5 289 L 425.5 297 L 425 295.5 L 432.5 288 Z " /><path fill="rgb(72,162,149)" stroke="rgb(72,162,149)" stroke-width="1" opacity="0.39215686274509803" d="M 289.5 291 L 290 312.5 L 280.5 321 L 262 321 L 263.5 318 L 267 315.5 L 269.5 312 L 271 312 L 271.5 310 L 281 310 L 280.5 312 L 271.5 312 L 265.5 319 L 281.5 319 L 289 311.5 L 289.5 291 Z " /><path fill="rgb(72,162,149)" stroke="rgb(72,162,149)" stroke-width="1" opacity="0.39215686274509803" d="M 304.5 293 L 307 293.5 L 298 301.5 L 298 319 L 324.5 319 L 325 321 L 297 321 L 297 300.5 L 304.5 293 Z " /><path fill="rgb(72,162,149)" stroke="rgb(72,162,149)" stroke-width="1" opacity="0.39215686274509803" d="M 192.5 301 L 193 305.5 L 192 305.5 L 192.5 301 Z " /><path fill="rgb(72,162,149)" stroke="rgb(72,162,149)" stroke-width="1" opacity="0.39215686274509803" d="M 306.5 310 L 315.5 310 L 317 311.5 L 305.5 312 L 306.5 310 Z " /><path fill="rgb(72,162,149)" stroke="rgb(72,162,149)" stroke-width="1" opacity="0.39215686274509803" d="M 448.5 319 L 451 319.5 L 448.5 320 L 448.5 319 Z " /><path fill="rgb(72,162,149)" stroke="rgb(72,162,149)" stroke-width="1" opacity="0.39215686274509803" d="M 445.5 320 L 447 320.5 L 444.5 322 L 445.5 320 Z " /><path fill="rgb(72,162,149)" stroke="rgb(72,162,149)" stroke-width="1" opacity="0.39215686274509803" d="M 231.5 322 Q 235.9 320.5 235 323.5 L 237.5 322 L 243 323 Q 244.3 327.6 241.5 329 L 240 328.5 L 242 325.5 Q 240.2 321.2 238.5 324 Q 235.9 323.2 237 326.5 L 238 328.5 L 236.5 328 L 235 328 L 235 324 L 233.5 324 L 231.5 324 Q 228.5 323.1 230 327.5 L 229 327.5 Q 228.3 322.8 231.5 322 Z " /><path fill="rgb(28,28,28)" stroke="rgb(28,28,28)" stroke-width="1" opacity="0.6039215686274509" d="M 95.5 113 L 118.5 113 L 120 114.5 L 120 136.5 L 118.5 138 L 94.5 138 L 93 136.5 L 93.5 114 L 94 137 L 119 137 L 119 114 L 95.5 114 L 95.5 113 Z " /><path fill="rgb(28,28,28)" stroke="rgb(28,28,28)" stroke-width="1" opacity="0.6039215686274509" d="M 409.5 113 L 432.5 113 L 434 114.5 L 434 138 L 408 138 L 408 114.5 L 409.5 113 Z M 409 114 L 409 137 L 433 137 L 433 114 L 409 114 Z " /><path fill="rgb(28,28,28)" stroke="rgb(28,28,28)" stroke-width="1" opacity="0.6039215686274509" d="M 129.5 114 L 130 244 L 154.5 244 L 155 243.5 L 155 114.5 L 156 114.5 L 156 243.5 L 154.5 245 L 130.5 245 L 129 243.5 L 129.5 114 Z " /><path fill="rgb(28,28,28)" stroke="rgb(28,28,28)" stroke-width="1" opacity="0.6039215686274509" d="M 314.5 114 L 315 244 L 340 244.5 L 314 245 L 314.5 114 Z " /><path fill="rgb(28,28,28)" stroke="rgb(28,28,28)" stroke-width="1" opacity="0.6039215686274509" d="M 511.5 114 L 512 160.5 L 509 158.5 L 505.5 154 L 496 148.5 L 497.5 148 L 510.5 158 L 511.5 114 Z " /><path fill="rgb(28,28,28)" stroke="rgb(28,28,28)" stroke-width="1" opacity="0.6039215686274509" d="M 210.5 146 L 215 146.5 L 210.5 147 L 210.5 146 Z " /><path fill="rgb(28,28,28)" stroke="rgb(28,28,28)" stroke-width="1" opacity="0.6039215686274509" d="M 223.5 146 L 228 146.5 L 223.5 147 L 223.5 146 Z " /><path fill="rgb(28,28,28)" stroke="rgb(28,28,28)" stroke-width="1" opacity="0.6039215686274509" d="M 263.5 146 L 267 146.5 L 263.5 147 L 263.5 146 Z " /><path fill="rgb(28,28,28)" stroke="rgb(28,28,28)" stroke-width="1" opacity="0.6039215686274509" d="M 275.5 146 L 280 146.5 L 275.5 147 L 275.5 146 Z " /><path fill="rgb(28,28,28)" stroke="rgb(28,28,28)" stroke-width="1" opacity="0.6039215686274509" d="M 474.5 146 L 478 146.5 L 474.5 147 L 474.5 146 Z " /><path fill="rgb(28,28,28)" stroke="rgb(28,28,28)" stroke-width="1" opacity="0.6039215686274509" d="M 488.5 146 L 492 146.5 L 488.5 147 L 488.5 146 Z " /><path fill="rgb(28,28,28)" stroke="rgb(28,28,28)" stroke-width="1" opacity="0.6039215686274509" d="M 691.5 146 L 696 146.5 L 691.5 147 L 691.5 146 Z " /><path fill="rgb(28,28,28)" stroke="rgb(28,28,28)" stroke-width="1" opacity="0.6039215686274509" d="M 704.5 146 L 709 146.5 L 704.5 147 L 704.5 146 Z " /><path fill="rgb(28,28,28)" stroke="rgb(28,28,28)" stroke-width="1" opacity="0.6039215686274509" d="M 871.5 146 L 877 146.5 L 871.5 147 L 871.5 146 Z " /><path fill="rgb(28,28,28)" stroke="rgb(28,28,28)" stroke-width="1" opacity="0.6039215686274509" d="M 891.5 146 L 897 146.5 L 891.5 147 L 891.5 146 Z " /><path fill="rgb(28,28,28)" stroke="rgb(28,28,28)" stroke-width="1" opacity="0.6039215686274509" d="M 206.5 147 L 208 147.5 Q 198.9 149.9 194 156.5 L 190.5 162 L 190 149 L 167.5 149 L 167 149.5 L 167 244 L 191 244 L 191 182.5 L 192.5 178 L 193 183.5 L 192 184.5 L 192 245 L 166.5 245 L 166 244.5 L 166 148 L 191 148 L 191 158.5 L 193 157.5 L 198.5 151 L 206.5 147 Z " /><path fill="rgb(28,28,28)" stroke="rgb(28,28,28)" stroke-width="1" opacity="0.6039215686274509" d="M 229.5 147 L 235.5 149 L 244 157.5 L 235.5 150 L 229.5 148 L 229.5 147 Z " /><path fill="rgb(28,28,28)" stroke="rgb(28,28,28)" stroke-width="1" opacity="0.6039215686274509" d="M 260.5 147 L 262 147.5 Q 252.3 149.8 248 157.5 L 245.5 161 L 244.5 159 Q 245.8 161.3 247 158.5 L 255.5 149 L 260.5 147 Z " /><path fill="rgb(28,28,28)" stroke="rgb(28,28,28)" stroke-width="1" opacity="0.6039215686274509" d="M 281.5 147 Q 293.1 149.9 299 158.5 L 301 162.5 L 299 161.5 Q 297.6 155.4 292.5 153 L 281.5 148 L 281.5 147 Z " /><path fill="rgb(28,28,28)" stroke="rgb(28,28,28)" stroke-width="1" opacity="0.6039215686274509" d="M 470.5 147 L 473 147.5 Q 460.7 150.2 454.5 159 L 459.5 153 L 470.5 147 Z " /><path fill="rgb(28,28,28)" stroke="rgb(28,28,28)" stroke-width="1" opacity="0.6039215686274509" d="M 686.5 147 L 689 147.5 Q 676.3 150.8 670 160.5 L 669.5 162 L 668 159.5 L 669 158.5 L 669 149 L 645 148.5 L 668.5 148 L 670 149.5 L 670.5 159 L 674.5 154 L 686.5 147 Z " /><path fill="rgb(28,28,28)" stroke="rgb(28,28,28)" stroke-width="1" opacity="0.6039215686274509" d="M 710.5 147 Q 717.1 147.4 720 151.5 L 718.5 151 L 710.5 148 L 710.5 147 Z " /><path fill="rgb(28,28,28)" stroke="rgb(28,28,28)" stroke-width="1" opacity="0.6039215686274509" d="M 866.5 147 L 869 147.5 L 856.5 152 L 857.5 150 L 866.5 147 Z " /><path fill="rgb(28,28,28)" stroke="rgb(28,28,28)" stroke-width="1" opacity="0.6039215686274509" d="M 898.5 147 L 907.5 149 L 917 155 L 923 165.5 L 924 170.5 L 923 170.5 Q 921 158.5 912.5 153 Q 907.3 148.7 898.5 148 L 898.5 147 Z " /><path fill="rgb(28,28,28)" stroke="rgb(28,28,28)" stroke-width="1" opacity="0.6039215686274509" d="M 94.5 148 L 118.5 148 L 120 149.5 L 120 243.5 L 118.5 245 L 94.5 245 L 93 243.5 L 93 149.5 L 94.5 148 Z M 94 149 L 94 244 L 95 244 L 119 244 L 119 150 L 119 149 L 94 149 Z " /><path fill="rgb(28,28,28)" stroke="rgb(28,28,28)" stroke-width="1" opacity="0.6039215686274509" d="M 371.5 148 L 403 148.5 L 371 184.5 L 373 187.5 L 371 186.5 L 370 183.5 L 401 149.5 L 371.5 149 L 341.5 183 L 346 177.5 L 371.5 148 Z " /><path fill="rgb(28,28,28)" stroke="rgb(28,28,28)" stroke-width="1" opacity="0.6039215686274509" d="M 408 148 L 433.5 148 L 434 148.5 L 434 245 L 408.5 245 L 408 244.5 L 408 148 Z M 409 149 L 409 244 L 410 244 L 433 244 L 433 150 L 433 149 L 409 149 Z " /><path fill="rgb(28,28,28)" stroke="rgb(28,28,28)" stroke-width="1" opacity="0.6039215686274509" d="M 547 148 L 573 148 L 573 209.5 Q 575.3 210.8 574 215.5 L 579.5 223 Q 584.5 226 593.5 225 L 598.5 223 L 597.5 225 Q 592.7 227.3 584.5 226 Q 578 224.5 575 219.5 L 572 210.5 L 572 149 L 548 149 L 548 217.5 L 550 225.5 L 549 225.5 L 547 218.5 L 547 148 Z " /><path fill="rgb(28,28,28)" stroke="rgb(28,28,28)" stroke-width="1" opacity="0.6039215686274509" d="M 609 148 L 634.5 148 L 635 148.5 L 635 245 L 610 245 L 610 233.5 L 609 233.5 L 602.5 241 Q 598.2 245.2 590.5 246 L 590.5 245 Q 602.3 242.8 608 234.5 L 609.5 232 L 611 232.5 L 611 244 L 634 244 L 634 149.5 L 633.5 149 L 610 149 L 610 207.5 L 608.5 212 L 608 208.5 L 609 207.5 L 609 148 Z " /><path fill="rgb(28,28,28)" stroke="rgb(28,28,28)" stroke-width="1" opacity="0.6039215686274509" d="M 743 148 L 769 148 L 769 209.5 Q 771.3 210.8 770 215.5 L 772 218.5 L 770 217.5 L 768 211.5 L 768 149 L 744 149 L 744 217.5 L 746 224.5 L 745 224.5 L 743 218.5 L 743 148 Z " /><path fill="rgb(28,28,28)" stroke="rgb(28,28,28)" stroke-width="1" opacity="0.6039215686274509" d="M 805.5 148 L 830 148.5 L 805 149 L 804.5 212 L 804 149.5 L 805.5 148 Z " /><path fill="rgb(28,28,28)" stroke="rgb(28,28,28)" stroke-width="1" opacity="0.6039215686274509" d="M 721.5 152 Q 729.3 158.3 732 169.5 L 732 245 L 706 245 L 706 179.5 L 703 172.5 L 705 173.5 L 707 178.5 L 707 244 L 730.5 244 L 731 243.5 L 731 169.5 Q 727.8 158.3 721.5 152 Z " /><path fill="rgb(28,28,28)" stroke="rgb(28,28,28)" stroke-width="1" opacity="0.6039215686274509" d="M 854.5 152 L 851.5 156 L 848.5 158 L 851.5 154 L 854.5 152 Z " /><path fill="rgb(28,28,28)" stroke="rgb(28,28,28)" stroke-width="1" opacity="0.6039215686274509" d="M 847.5 159 L 847 160.5 L 843.5 168 L 843 166.5 L 847.5 159 Z " /><path fill="rgb(28,28,28)" stroke="rgb(28,28,28)" stroke-width="1" opacity="0.6039215686274509" d="M 453.5 160 L 452 162.5 L 449.5 167 L 450 165.5 L 453.5 160 Z " /><path fill="rgb(28,28,28)" stroke="rgb(28,28,28)" stroke-width="1" opacity="0.6039215686274509" d="M 879.5 165 L 887 165.5 L 879.5 166 L 879.5 165 Z " /><path fill="rgb(28,28,28)" stroke="rgb(28,28,28)" stroke-width="1" opacity="0.6039215686274509" d="M 261.5 166 L 267.5 166 L 277 173.5 L 278 176.5 L 277 176.5 L 271.5 169 Q 268.6 166.4 262.5 167 Q 255.3 168.8 252 174.5 L 249 182.5 L 249 245 L 223 245 L 223 183.5 L 221 173.5 L 216.5 169 L 203.5 168 Q 197.8 169.3 195 173.5 L 193.5 177 L 193 175.5 L 198.5 169 Q 203.2 165.2 213.5 167 Q 219.6 168.4 222 173.5 L 224 181.5 L 224 244 L 248 244 L 248 182.5 Q 249.9 173.9 255.5 169 L 261.5 166 Z " /><path fill="rgb(28,28,28)" stroke="rgb(28,28,28)" stroke-width="1" opacity="0.6039215686274509" d="M 874.5 166 L 878 166.5 L 869.5 170 L 869.5 169 L 874.5 166 Z " /><path fill="rgb(28,28,28)" stroke="rgb(28,28,28)" stroke-width="1" opacity="0.6039215686274509" d="M 888.5 166 Q 896.6 165.9 899 171.5 L 898.5 173 L 895.5 169 L 888.5 167 L 888.5 166 Z " /><path fill="rgb(28,28,28)" stroke="rgb(28,28,28)" stroke-width="1" opacity="0.6039215686274509" d="M 487.5 167 Q 503.9 166.1 509 176.5 L 512 186.5 L 511 186.5 Q 510 175.5 502.5 171 L 498.5 169 L 489.5 168 L 479.5 171 L 474 176.5 L 470 189.5 L 470 203.5 L 474 215.5 L 479.5 222 L 482 223.5 L 480.5 223 L 475 218.5 Q 466.6 208.9 469 188.5 L 473 176.5 L 479.5 170 L 487.5 167 Z " /><path fill="rgb(28,28,28)" stroke="rgb(28,28,28)" stroke-width="1" opacity="0.6039215686274509" d="M 684.5 167 Q 697.6 164.9 703 170.5 L 701.5 171 Q 696.7 166.3 685.5 168 Q 677.7 169.2 674 174.5 L 671.5 181 L 671 178.5 L 677.5 170 L 684.5 167 Z " /><path fill="rgb(28,28,28)" stroke="rgb(28,28,28)" stroke-width="1" opacity="0.6039215686274509" d="M 448.5 168 L 449 169.5 L 446 176.5 L 444 186.5 L 444 204.5 L 448 220.5 L 447 220.5 L 443 204.5 L 443 186.5 L 445 175.5 L 448.5 168 Z " /><path fill="rgb(28,28,28)" stroke="rgb(28,28,28)" stroke-width="1" opacity="0.6039215686274509" d="M 303.5 169 L 305 172.5 L 305 243.5 L 303.5 245 L 279 245 L 279 182.5 L 278 178.5 L 279 178.5 L 280 182.5 L 280 244 L 304 244 L 304 173.5 L 303.5 169 Z " /><path fill="rgb(28,28,28)" stroke="rgb(28,28,28)" stroke-width="1" opacity="0.6039215686274509" d="M 842.5 169 L 843 171.5 L 842 171.5 L 842.5 169 Z " /><path fill="rgb(28,28,28)" stroke="rgb(28,28,28)" stroke-width="1" opacity="0.6039215686274509" d="M 868.5 171 L 867.5 173 L 868.5 171 Z " /><path fill="rgb(28,28,28)" stroke="rgb(28,28,28)" stroke-width="1" opacity="0.6039215686274509" d="M 924.5 172 L 925 176.5 L 924 176.5 L 924.5 172 Z " /><path fill="rgb(28,28,28)" stroke="rgb(28,28,28)" stroke-width="1" opacity="0.6039215686274509" d="M 841.5 174 L 842 179 L 864.5 179 L 865 176.5 L 866 176.5 Q 867.5 180.9 864.5 180 L 863.5 181 L 842.5 181 Q 839.4 179.4 841.5 174 Z " /><path fill="rgb(28,28,28)" stroke="rgb(28,28,28)" stroke-width="1" opacity="0.6039215686274509" d="M 899.5 174 L 900 176.5 L 899 176.5 L 899.5 174 Z " /><path fill="rgb(28,28,28)" stroke="rgb(28,28,28)" stroke-width="1" opacity="0.6039215686274509" d="M 898.5 179 L 898 180.5 L 896.5 183 L 890.5 185 L 890.5 184 Q 896.4 183.4 898.5 179 Z " /><path fill="rgb(28,28,28)" stroke="rgb(28,28,28)" stroke-width="1" opacity="0.6039215686274509" d="M 670.5 182 L 671 243.5 L 669.5 245 L 645.5 245 L 645.5 244 L 670 244 L 670.5 182 Z " /><path fill="rgb(28,28,28)" stroke="rgb(28,28,28)" stroke-width="1" opacity="0.6039215686274509" d="M 884.5 185 L 889 185.5 L 862.5 190 L 862.5 189 L 884.5 185 Z " /><path fill="rgb(28,28,28)" stroke="rgb(28,28,28)" stroke-width="1" opacity="0.6039215686274509" d="M 373.5 189 L 377 195.5 L 375 194.5 L 373.5 189 Z " /><path fill="rgb(28,28,28)" stroke="rgb(28,28,28)" stroke-width="1" opacity="0.6039215686274509" d="M 512.5 189 L 513 205.5 L 512 205.5 L 512.5 189 Z " /><path fill="rgb(28,28,28)" stroke="rgb(28,28,28)" stroke-width="1" opacity="0.6039215686274509" d="M 856.5 191 L 858 191.5 Q 848.5 194 843.5 201 L 849.5 194 L 856.5 191 Z " /><path fill="rgb(28,28,28)" stroke="rgb(28,28,28)" stroke-width="1" opacity="0.6039215686274509" d="M 898.5 198 L 900 198.5 L 890.5 202 L 890.5 201 L 898.5 198 Z " /><path fill="rgb(28,28,28)" stroke="rgb(28,28,28)" stroke-width="1" opacity="0.6039215686274509" d="M 378.5 199 L 390 220.5 L 388 219.5 L 378.5 199 Z " /><path fill="rgb(28,28,28)" stroke="rgb(28,28,28)" stroke-width="1" opacity="0.6039215686274509" d="M 899.5 200 L 900 211.5 L 899 211.5 L 899.5 200 Z " /><path fill="rgb(28,28,28)" stroke="rgb(28,28,28)" stroke-width="1" opacity="0.6039215686274509" d="M 350 202 L 353 202.5 L 340.5 214 L 350 203.5 L 350 202 Z " /><path fill="rgb(28,28,28)" stroke="rgb(28,28,28)" stroke-width="1" opacity="0.6039215686274509" d="M 842.5 202 L 842 203.5 Q 837.3 211.8 839 226.5 Q 841.2 236.8 849 241.5 L 846.5 240 L 843 237.5 Q 835.8 229.7 838 212.5 L 839 207.5 L 842.5 202 Z " /><path fill="rgb(28,28,28)" stroke="rgb(28,28,28)" stroke-width="1" opacity="0.6039215686274509" d="M 885.5 202 L 889 202.5 L 885.5 203 L 885.5 202 Z " /><path fill="rgb(28,28,28)" stroke="rgb(28,28,28)" stroke-width="1" opacity="0.6039215686274509" d="M 880.5 203 L 884 203.5 L 880.5 204 L 880.5 203 Z " /><path fill="rgb(28,28,28)" stroke="rgb(28,28,28)" stroke-width="1" opacity="0.6039215686274509" d="M 876.5 204 L 879 204.5 L 868.5 209 L 870.5 206 L 876.5 204 Z " /><path fill="rgb(28,28,28)" stroke="rgb(28,28,28)" stroke-width="1" opacity="0.6039215686274509" d="M 354.5 206 L 359 214.5 L 357 213.5 L 354.5 206 Z " /><path fill="rgb(28,28,28)" stroke="rgb(28,28,28)" stroke-width="1" opacity="0.6039215686274509" d="M 511.5 207 L 512 209.5 Q 509.6 218.5 502.5 223 L 507 217.5 L 511.5 207 Z " /><path fill="rgb(28,28,28)" stroke="rgb(28,28,28)" stroke-width="1" opacity="0.6039215686274509" d="M 866.5 209 L 867 210.5 L 865 212.5 L 864 219.5 L 865 223.5 L 868.5 227 L 870 227.5 L 868.5 228 Q 862.3 225.3 863 215.5 L 866.5 209 Z " /><path fill="rgb(28,28,28)" stroke="rgb(28,28,28)" stroke-width="1" opacity="0.6039215686274509" d="M 607.5 213 L 608 214.5 L 603.5 221 L 600.5 223 L 606 216.5 L 607.5 213 Z " /><path fill="rgb(28,28,28)" stroke="rgb(28,28,28)" stroke-width="1" opacity="0.6039215686274509" d="M 803.5 213 L 804 214.5 L 797.5 222 L 802 216.5 L 803.5 213 Z " /><path fill="rgb(28,28,28)" stroke="rgb(28,28,28)" stroke-width="1" opacity="0.6039215686274509" d="M 898.5 213 L 899 214.5 L 898 217.5 L 889.5 226 L 883.5 228 L 883.5 227 Q 892.4 225.4 896 218.5 L 898.5 213 Z " /><path fill="rgb(28,28,28)" stroke="rgb(28,28,28)" stroke-width="1" opacity="0.6039215686274509" d="M 361.5 220 L 373 244 L 401 243.5 L 392 226.5 L 394 227.5 L 402 245 L 373.5 245 L 372 243.5 L 361 221.5 L 361.5 220 Z " /><path fill="rgb(28,28,28)" stroke="rgb(28,28,28)" stroke-width="1" opacity="0.6039215686274509" d="M 772.5 220 L 778.5 224 L 786.5 225 L 791.5 224 L 791.5 225 L 782.5 226 L 774.5 223 L 772.5 220 Z " /><path fill="rgb(28,28,28)" stroke="rgb(28,28,28)" stroke-width="1" opacity="0.6039215686274509" d="M 795.5 222 L 794.5 224 L 793 223.5 L 795.5 222 Z " /><path fill="rgb(28,28,28)" stroke="rgb(28,28,28)" stroke-width="1" opacity="0.6039215686274509" d="M 500.5 223 L 499.5 225 L 489.5 227 L 483 224.5 L 484.5 224 L 485.5 225 L 496.5 225 L 500.5 223 Z " /><path fill="rgb(28,28,28)" stroke="rgb(28,28,28)" stroke-width="1" opacity="0.6039215686274509" d="M 449.5 224 Q 453.8 234.2 462.5 240 Q 469.9 245.6 482 246.5 L 476.5 247 L 469.5 245 L 458 238 L 450 227.5 L 449.5 224 Z " /><path fill="rgb(28,28,28)" stroke="rgb(28,28,28)" stroke-width="1" opacity="0.6039215686274509" d="M 871.5 228 L 882 228.5 L 871.5 229 L 871.5 228 Z " /><path fill="rgb(28,28,28)" stroke="rgb(28,28,28)" stroke-width="1" opacity="0.6039215686274509" d="M 551.5 229 L 557.5 238 Q 564.3 245.2 577 246.5 L 572.5 247 Q 561.3 244.3 555 236.5 L 551 230.5 L 551.5 229 Z " /><path fill="rgb(28,28,28)" stroke="rgb(28,28,28)" stroke-width="1" opacity="0.6039215686274509" d="M 748.5 230 L 755.5 238 L 759 240.5 L 756.5 239 L 749 232.5 L 748.5 230 Z " /><path fill="rgb(28,28,28)" stroke="rgb(28,28,28)" stroke-width="1" opacity="0.6039215686274509" d="M 804.5 233 L 805 252.5 L 804 252.5 L 804 235.5 L 803 234.5 L 804.5 233 Z " /><path fill="rgb(28,28,28)" stroke="rgb(28,28,28)" stroke-width="1" opacity="0.6039215686274509" d="M 511.5 234 L 513 234.5 L 513 244 L 536.5 244 L 536.5 245 L 512 245 L 512 235.5 L 504 241.5 L 511.5 234 Z " /><path fill="rgb(28,28,28)" stroke="rgb(28,28,28)" stroke-width="1" opacity="0.6039215686274509" d="M 802.5 236 L 799.5 240 L 802.5 236 Z " /><path fill="rgb(28,28,28)" stroke="rgb(28,28,28)" stroke-width="1" opacity="0.6039215686274509" d="M 899.5 236 Q 902 237 901 241.5 L 900 241.5 L 899.5 237 Q 891.4 246.9 873.5 247 L 873.5 246 Q 891.1 245.6 899.5 236 Z " /><path fill="rgb(28,28,28)" stroke="rgb(28,28,28)" stroke-width="1" opacity="0.6039215686274509" d="M 797.5 240 L 796.5 242 Q 787.8 248.3 770.5 246 L 762 242.5 L 763.5 242 Q 771.1 246.9 785.5 245 L 797.5 240 Z " /><path fill="rgb(28,28,28)" stroke="rgb(28,28,28)" stroke-width="1" opacity="0.6039215686274509" d="M 502.5 242 L 501.5 244 L 493.5 247 L 488.5 247 L 488.5 246 L 493.5 246 L 502.5 242 Z " /><path fill="rgb(28,28,28)" stroke="rgb(28,28,28)" stroke-width="1" opacity="0.6039215686274509" d="M 850.5 242 Q 856.6 246.4 867 246.5 L 860.5 247 L 851.5 244 L 850.5 242 Z " /><path fill="rgb(28,28,28)" stroke="rgb(28,28,28)" stroke-width="1" opacity="0.6039215686274509" d="M 901.5 243 L 902.5 244 L 925 244.5 L 901 245 L 901.5 243 Z " /><path fill="rgb(28,28,28)" stroke="rgb(28,28,28)" stroke-width="1" opacity="0.6039215686274509" d="M 584.5 246 L 589 246.5 L 584.5 247 L 584.5 246 Z " /><path fill="rgb(28,28,28)" stroke="rgb(28,28,28)" stroke-width="1" opacity="0.6039215686274509" d="M 743 249 L 766.5 249 L 767 250.5 L 769 258.5 L 772.5 263 L 777 265.5 L 775.5 266 L 769 260.5 Q 766.4 257.6 767 251.5 L 765.5 250 L 744 250 L 744 257.5 L 746 266.5 L 749 272.5 L 756.5 281 L 762 284.5 L 760.5 284 L 757.5 283 L 750 275.5 Q 741.9 266.3 743 249 Z " /><path fill="rgb(28,28,28)" stroke="rgb(28,28,28)" stroke-width="1" opacity="0.6039215686274509" d="M 829.5 252 L 830 256.5 L 829 256.5 L 829.5 252 Z " /><path fill="rgb(28,28,28)" stroke="rgb(28,28,28)" stroke-width="1" opacity="0.6039215686274509" d="M 803.5 254 L 804 255.5 L 798.5 264 L 792.5 267 L 792.5 266 Q 798.6 264.6 801 259.5 L 803.5 254 Z " /><path fill="rgb(28,28,28)" stroke="rgb(28,28,28)" stroke-width="1" opacity="0.6039215686274509" d="M 828.5 258 L 829 260.5 L 828 260.5 L 828.5 258 Z " /><path fill="rgb(28,28,28)" stroke="rgb(28,28,28)" stroke-width="1" opacity="0.6039215686274509" d="M 827.5 262 L 828 263.5 Q 824.3 273.8 816.5 280 L 821 274.5 L 827.5 262 Z " /><path fill="rgb(28,28,28)" stroke="rgb(28,28,28)" stroke-width="1" opacity="0.6039215686274509" d="M 781.5 267 L 791 267.5 L 781.5 268 L 781.5 267 Z " /><path fill="rgb(28,28,28)" stroke="rgb(28,28,28)" stroke-width="1" opacity="0.6039215686274509" d="M 225.5 274 L 226 310.5 L 225.5 312 L 235 312 L 235 296.5 L 243 290 L 242 292.5 L 242 307.5 L 242 309.5 L 243.5 312 L 252 312 L 252 297.5 L 253 295 L 257 292.5 L 258.5 290 L 260 290.5 L 260 311.5 L 252.5 319 L 218 319 L 218 282.5 L 217 281.5 L 223 276.5 Q 222.3 274.3 224.5 275 L 225.5 274 Z " /><path fill="rgb(28,28,28)" stroke="rgb(28,28,28)" stroke-width="1" opacity="0.6039215686274509" d="M 360.5 274 Q 363.3 275.3 361 276.5 Q 359.5 282 362 283.5 L 351 294.5 L 351 296 L 372 296 L 372 311.5 L 364.5 319 L 335.5 319 L 328 311.5 L 328 296 L 324 297.5 L 325 298.5 L 325 311.5 L 324 313.5 L 325 316.5 L 324.5 319 L 298 319 L 298 301.5 L 305.5 295 L 306 310.5 L 305.5 312 L 317 311.5 L 316 310.5 L 316 298.5 L 324.5 289 L 334.5 289 L 336 290.5 L 336 312 L 364 312 L 363 309.5 L 364 306.5 L 363 304.5 L 363.5 303 L 340 303 L 340 294.5 L 360.5 274 Z " /><path fill="rgb(28,28,28)" stroke="rgb(28,28,28)" stroke-width="1" opacity="0.6039215686274509" d="M 420.5 275 L 422 275.5 L 422 311.5 Q 422 312.5 426.5 312 L 425 309.5 L 425 297.5 L 433.5 289 L 449 289 L 449 296.5 L 447.5 296 L 434 296 L 434 309.5 L 433 312 L 448 312.5 L 441.5 319 L 392.5 319 L 398.5 312 Q 403 312.5 403 311.5 L 403 297 L 396.5 296 L 395 297.5 L 395 311.5 L 387.5 319 L 375 318.5 L 376 316 L 381.5 312 L 387 312 L 387 297.5 L 393.5 290 L 395.5 289 L 410 289 L 410 311.5 L 414 312 L 414 282.5 L 420.5 275 Z " /><path fill="rgb(28,28,28)" stroke="rgb(28,28,28)" stroke-width="1" opacity="0.6039215686274509" d="M 273.5 277 Q 278.3 276.3 279 279.5 Q 279.5 283.5 276.5 284 L 269 286 Q 267.9 283.3 270.5 284 L 273 283 L 272 278.5 L 273.5 277 Z M 275 279 L 276 281 Q 277 278 275 279 Z " /><path fill="rgb(28,28,28)" stroke="rgb(28,28,28)" stroke-width="1" opacity="0.6039215686274509" d="M 252.5 280 L 256 281 Q 256.8 284.8 253.5 286 L 250 283.5 L 252.5 280 Z " /><path fill="rgb(28,28,28)" stroke="rgb(28,28,28)" stroke-width="1" opacity="0.6039215686274509" d="M 814.5 280 L 812.5 283 L 808.5 285 L 809.5 283 L 814.5 280 Z " /><path fill="rgb(28,28,28)" stroke="rgb(28,28,28)" stroke-width="1" opacity="0.6039215686274509" d="M 763.5 285 L 776.5 289 L 793.5 289 L 804.5 286 L 804.5 287 Q 794.1 292.1 776.5 290 L 767.5 288 L 763.5 286 L 763.5 285 Z " /><path fill="rgb(28,28,28)" stroke="rgb(28,28,28)" stroke-width="1" opacity="0.6039215686274509" d="M 274 289 L 289 289 L 289 311.5 L 281.5 319 L 265.5 319 L 271.5 312 L 281 312 L 281 297.5 L 279.5 296 L 269.5 296 L 268 296.5 L 269 294 L 274 290.5 L 274 289 Z " /><path fill="rgb(28,28,28)" stroke="rgb(28,28,28)" stroke-width="1" opacity="0.6039215686274509" d="M 447.5 320 L 451 320.5 L 448.5 323 L 441 325 L 443.5 321 L 445.5 321 L 447.5 320 Z " /><path fill="rgb(28,28,28)" stroke="rgb(28,28,28)" stroke-width="1" opacity="0.6039215686274509" d="M 232.5 323 L 235 324 Q 236 327.8 233.5 329 L 230 327.5 Q 228.5 323.1 231.5 324 L 232.5 323 Z " /><path fill="rgb(28,28,28)" stroke="rgb(28,28,28)" stroke-width="1" opacity="0.6039215686274509" d="M 239.5 323 L 242 326.5 L 238 329 L 237 324 L 239.5 323 Z " /><path fill="rgb(39,39,39)" stroke="rgb(39,39,39)" stroke-width="1" opacity="0.9058823529411765" d="M 703.5 146 L 704.5 148 L 703.5 146 Z " /><path fill="rgb(39,39,39)" stroke="rgb(39,39,39)" stroke-width="1" opacity="0.9058823529411765" d="M 194.5 157 L 192.5 160 L 194.5 157 Z " /><path fill="rgb(39,39,39)" stroke="rgb(39,39,39)" stroke-width="1" opacity="0.9058823529411765" d="M 725.5 158 L 726.5 160 L 725.5 158 Z " /><path fill="rgb(39,39,39)" stroke="rgb(39,39,39)" stroke-width="1" opacity="0.9058823529411765" d="M 278.5 175 L 279.5 177 L 278.5 175 Z " /><path fill="rgb(39,39,39)" stroke="rgb(39,39,39)" stroke-width="1" opacity="0.9058823529411765" d="M 191.5 179 L 191.5 182 Q 188.5 180.5 191.5 179 Z " /><path fill="rgb(39,39,39)" stroke="rgb(39,39,39)" stroke-width="1" opacity="0.9058823529411765" d="M 469.5 187 L 468.5 189 L 469.5 187 Z " /><path fill="rgb(39,39,39)" stroke="rgb(39,39,39)" stroke-width="1" opacity="0.9058823529411765" d="M 513.5 193 Q 515.8 192.3 515 194.5 L 513.5 193 Z " /><path fill="rgb(39,39,39)" stroke="rgb(39,39,39)" stroke-width="1" opacity="0.9058823529411765" d="M 351.5 200 L 352.5 202 Q 349.7 202.7 351.5 200 Z " /><path fill="rgb(39,39,39)" stroke="rgb(39,39,39)" stroke-width="1" opacity="0.9058823529411765" d="M 900.5 200 Q 903.5 199.1 902 203.5 L 901 203.5 L 900.5 200 Z " /><path fill="rgb(39,39,39)" stroke="rgb(39,39,39)" stroke-width="1" opacity="0.9058823529411765" d="M 355.5 204 L 354.5 206 L 355.5 204 Z " /><path fill="rgb(39,39,39)" stroke="rgb(39,39,39)" stroke-width="1" opacity="0.9058823529411765" d="M 573.5 216 L 574 218.5 L 573 218.5 L 573.5 216 Z " /><path fill="rgb(39,39,39)" stroke="rgb(39,39,39)" stroke-width="1" opacity="0.9058823529411765" d="M 788.5 225 L 789.5 227 L 788.5 225 Z " /><path fill="rgb(39,39,39)" stroke="rgb(39,39,39)" stroke-width="1" opacity="0.9058823529411765" d="M 496.5 243 L 495.5 245 L 496.5 243 Z " /><path fill="rgb(39,39,39)" stroke="rgb(39,39,39)" stroke-width="1" opacity="0.9058823529411765" d="M 806.5 248 L 807 250 L 805 249.5 L 806.5 248 Z " /><path fill="rgb(39,39,39)" stroke="rgb(39,39,39)" stroke-width="1" opacity="0.9058823529411765" d="M 802.5 260 L 801.5 262 L 802.5 260 Z " /><path fill="rgb(39,39,39)" stroke="rgb(39,39,39)" stroke-width="1" opacity="0.9058823529411765" d="M 776.5 266 L 777.5 268 L 776.5 266 Z " /><path fill="rgb(39,39,39)" stroke="rgb(39,39,39)" stroke-width="1" opacity="0.9058823529411765" d="M 808.5 282 L 808 283.5 L 807.5 285 L 806.5 283 L 808.5 282 Z " /><path fill="rgb(40,40,40)" stroke="rgb(40,40,40)" stroke-width="1" opacity="0.9019607843137255" d="M 95.5 114 L 119 114 L 119 137 L 94 137 L 94 115.5 L 95.5 114 Z " /><path fill="rgb(40,40,40)" stroke="rgb(40,40,40)" stroke-width="1" opacity="0.9019607843137255" d="M 130 114 L 153.5 114 L 155 115.5 L 155 243.5 L 154.5 244 L 130 244 L 130 114 Z " /><path fill="rgb(40,40,40)" stroke="rgb(40,40,40)" stroke-width="1" opacity="0.9019607843137255" d="M 315 114 L 340 114 L 340 181.5 L 340 183.5 L 340.5 185 L 356.5 166 L 358 166.5 L 358 164.5 L 363.5 158 Q 365.8 158.8 365 156.5 L 371.5 149 L 401 149.5 L 390.5 161 Q 388.3 160.3 389 162.5 L 370 184.5 L 384 210.5 L 383.5 212 Q 385.8 211.3 385 213.5 L 392 225.5 L 391.5 227 Q 393.8 226.3 393 228.5 L 396 233.5 L 395 235.5 L 397 235.5 L 401 243.5 L 373 244 L 362 221.5 L 362.5 220 Q 360.3 220.8 361 218.5 L 351.5 200 L 351 202 L 349 202.5 L 350 203.5 L 346.5 207 Q 344.3 206.3 345 208.5 L 340 213.5 L 340 244 L 315.5 244 L 315 243.5 L 315 114 Z " /><path fill="rgb(40,40,40)" stroke="rgb(40,40,40)" stroke-width="1" opacity="0.9019607843137255" d="M 409 114 L 433 114 L 433 137 L 409 137 L 409 114 Z " /><path fill="rgb(40,40,40)" stroke="rgb(40,40,40)" stroke-width="1" opacity="0.9019607843137255" d="M 512 114 L 535.5 114 L 537 115.5 L 537 243.5 L 536.5 244 L 513 244 L 513 234.5 L 511.5 234 L 507 237 L 503.5 242 L 496.5 245 Q 495 242.5 493.5 246 Q 488.8 247.2 487.5 245 L 487 247 Q 474.7 246.6 465.5 242 L 453 230.5 L 448 221.5 L 447 216.5 L 447.5 215 Q 444.5 215.9 446 211.5 Q 442.2 202.8 444 188.5 L 445 185.5 L 445 180.5 L 449 167.5 L 459.5 154 Q 465.7 148.6 475 147 L 475.5 149 L 476 147 L 479.5 146 L 481.5 146 Q 487.6 145.3 490 147 L 490.5 149 L 491 147 L 501.5 151 L 508 156.5 L 511.5 161 L 512 114 Z M 488 167 L 480 170 L 473 177 L 470 187 L 468 189 L 469 190 L 469 205 L 473 216 Q 476 217 474 219 L 476 219 L 479 224 L 482 224 Q 484 223 483 226 L 485 225 L 490 227 L 498 226 L 502 224 L 510 216 L 510 214 Q 513 212 511 211 L 513 210 L 512 206 L 514 206 L 513 205 L 513 195 L 515 195 Q 516 192 513 193 L 511 182 L 511 180 L 509 177 Q 504 166 488 167 Z " /><path fill="rgb(40,40,40)" stroke="rgb(40,40,40)" stroke-width="1" opacity="0.9019607843137255" d="M 215 146 L 222.5 146 L 231.5 148 Q 239.7 151.3 244 158.5 L 245.5 161 L 255.5 150 L 262.5 147 L 275 146 L 275.5 148 L 280.5 147 Q 291.6 150.4 298 158.5 L 302 165.5 L 304 175.5 L 304 177.5 L 304 244 L 280 244 L 280 182.5 L 278 176.5 L 278.5 175 Q 276.3 175.8 277 173.5 L 275 170 L 267.5 166 L 261.5 166 L 252 171.5 Q 254.5 173 251 174.5 L 248 182.5 L 248 244 L 224 244 L 224 181.5 L 222 174.5 L 223 172.5 Q 221 174.2 219 170.5 Q 219.8 168.3 217.5 169 L 215 168 L 214.5 166 L 213.5 167 L 202.5 167 L 194 173.5 L 191 179.5 L 191 181.5 L 191 244 L 167 244 L 167 149.5 L 167.5 149 L 190 149 L 190 160.5 L 189 161.5 L 190.5 162 L 197.5 153 L 208.5 147 L 213.5 147 L 215 147.5 L 215 146 Z " /><path fill="rgb(40,40,40)" stroke="rgb(40,40,40)" stroke-width="1" opacity="0.9019607843137255" d="M 696 146 L 699.5 147 L 702.5 146 Q 704 149.5 705.5 147 Q 707.8 146.3 707 148.5 L 708 148.5 Q 707.3 146.3 709.5 147 Q 719.6 149.4 725 156.5 L 731 169.5 L 731 244 L 707 244 L 707 178.5 L 703 170 L 698.5 167 L 696.5 167 Q 678.6 164.6 673 174.5 Q 673.8 176.8 671.5 176 L 671 178.5 L 670 185 L 668 185.5 L 670 186 L 670 244 L 645 244 L 645 149.5 L 645.5 149 L 667.5 149 L 669 150.5 L 669 158.5 L 668 160.5 L 670 161.5 L 672 158.5 Q 677.2 151.2 686.5 148 L 687.5 150 L 689.5 147 L 691.5 147 L 695.5 148 L 696 146 Z " /><path fill="rgb(40,40,40)" stroke="rgb(40,40,40)" stroke-width="1" opacity="0.9019607843137255" d="M 877.5 146 L 879.5 146 L 898 147 L 898.5 149 L 901.5 148 L 907 150 L 907.5 152 L 909.5 151 L 919 159.5 L 922 165.5 L 925 177.5 L 925 244 L 902.5 244 L 901 242.5 L 902 237.5 L 899.5 236 L 888.5 243 L 887 242.5 Q 887.8 245.1 884.5 244 L 879.5 246 L 867.5 247 L 853.5 244 Q 846 241 842 234.5 Q 837.6 228.4 839 216.5 L 839 214.5 Q 840.3 201.8 848.5 196 L 853.5 193 Q 855 195.5 856.5 192 L 865.5 189 L 877.5 188 L 891.5 185 L 893 185.5 Q 892.3 183.3 894.5 184 L 898 183 L 900 174.5 L 894.5 167 L 890.5 165 L 887.5 166 Q 885.8 163.2 879.5 165 Q 878.3 167.3 873.5 166 L 869 169 L 865 179 L 842.5 179 Q 841.4 178.9 842 173.5 L 845 163.5 L 850.5 156 L 857.5 151 L 869.5 147 Q 875.8 148.8 877.5 146 Z M 900 197 L 896 200 L 893 200 L 891 200 L 890 202 L 886 201 L 885 203 L 871 206 L 868 209 Q 865 208 866 211 L 864 211 L 864 213 L 863 216 L 864 224 L 872 229 L 886 228 L 896 221 Q 901 214 901 201 L 901 204 L 902 204 Q 903 199 900 200 L 901 198 L 900 197 Z " /><path fill="rgb(40,40,40)" stroke="rgb(40,40,40)" stroke-width="1" opacity="0.9019607843137255" d="M 94 149 L 118.5 149 L 119 149.5 L 119 244 L 94.5 244 L 94 243.5 L 94 149 Z " /><path fill="rgb(40,40,40)" stroke="rgb(40,40,40)" stroke-width="1" opacity="0.9019607843137255" d="M 409 149 L 432.5 149 L 433 149.5 L 433 244 L 409.5 244 L 409 243.5 L 409 149 Z " /><path fill="rgb(40,40,40)" stroke="rgb(40,40,40)" stroke-width="1" opacity="0.9019607843137255" d="M 548 149 L 572 149 L 572 210.5 L 573 215.5 L 573.5 219 L 575 218.5 L 579.5 224 Q 584.6 227.4 594.5 226 L 605 219.5 L 610 207.5 L 610 149 L 633.5 149 L 634 149.5 L 634 244 L 611 244 L 611 232.5 L 609.5 232 L 602.5 240 Q 594.6 246.6 580.5 247 L 578.5 246 L 576.5 246 Q 562.5 245 556 236.5 L 550 226.5 L 549 220.5 Q 551.5 219 548 217.5 L 548 149 Z " /><path fill="rgb(40,40,40)" stroke="rgb(40,40,40)" stroke-width="1" opacity="0.9019607843137255" d="M 744 149 L 768 149 L 768 211.5 L 769 214.5 L 770 216.5 L 769.5 218 L 772 219.5 L 774.5 224 L 776.5 224 L 782.5 226 L 788.5 226 Q 798.4 223.9 803 216.5 L 805 209 L 807 208.5 L 805 208 L 805 149 L 830 149 L 830 251.5 L 828.5 252 L 829 253.5 L 828 261.5 L 826.5 263 L 825 263.5 L 826 266 L 824 266.5 L 825 269 Q 822 267.8 823 271.5 L 820 273.5 L 820.5 275 Q 818.3 274.3 819 276.5 L 816 278 Q 817.1 280.7 814.5 280 L 808.5 284 L 806.5 283 L 805.5 286 L 802.5 287 L 800.5 287 Q 791.4 290.9 776.5 289 L 765 286 L 764.5 284 L 762.5 285 L 751 275.5 L 749 272.5 L 749.5 271 Q 747.3 271.8 748 269.5 Q 744.2 263.8 744 254.5 L 744 252.5 L 744.5 250 L 764.5 250 L 767 251 Q 766.6 261.1 773.5 265 L 776.5 267 L 778.5 267 L 789.5 268 L 790.5 269 L 791 267 Q 797.9 266.3 802 261.5 Q 799.5 260 803 258.5 L 805 250 Q 807.7 251.1 807 248.5 L 805 248.5 L 804.5 232 L 803 236 Q 800.3 234.9 801 237.5 Q 793.4 245.9 776.5 245 L 774.5 245 L 759 241 Q 760.1 238.3 757.5 239 L 754 236.5 Q 754.8 234.3 752.5 235 L 746 225.5 L 744 217.5 L 744 149 Z " /><path fill="rgb(21,161,141)" stroke="rgb(21,161,141)" stroke-width="1" opacity="0.996078431372549" d="M 10 33 L 148.5 33 Q 147.5 36.3 153.5 35 Q 163.4 38.1 169 45.5 L 169 47.5 L 176 57.5 L 178 67.5 L 179.5 69 Q 182.9 69.9 181 64.5 L 183 56.5 L 190.5 44 L 194 41.5 Q 193.2 38.9 196.5 40 L 202.5 36 L 210.5 35 L 212.5 33 L 326 33 Q 324.9 35.7 327.5 35 L 334 42.5 L 338 57.5 L 338 59.5 L 339 79 L 209.5 79 L 207.5 81 L 199.5 83 L 189 93.5 L 183 103.5 L 181 115 Q 178.3 116.1 179 113.5 L 177 111.5 Q 176.8 103.2 173 98.5 L 165.5 88 L 162 86.5 L 160.5 84 L 150 81 L 149.5 79 L 55 79 L 55 277 L 181.5 277 Q 188.1 281.4 190 290.5 L 193 306.5 L 193 320.5 L 191.5 322 L 10 322 L 10 33 Z " /></svg>