<?xml version="1.0" encoding="utf-8"?>
<!-- Generator: Adobe Illustrator 26.0.1, SVG Export Plug-In . SVG Version: 6.00 Build 0)  -->
<svg version="1.1" id="Layer_1" xmlns="http://www.w3.org/2000/svg" xmlns:xlink="http://www.w3.org/1999/xlink" x="0px" y="0px"
	 viewBox="0 0 220.68 83" style="enable-background:new 0 0 220.68 83;" xml:space="preserve">
<style type="text/css">
	.st0{fill:#15A18D;}
	.st1{fill:#35E87E;}
	.st2{fill:#ADF2C8;}
	.st3{fill:#081B24;}
</style>
<g>
	<g>
		<path class="st0" d="M68.86,2.74L63.3,10.4l-1.72,2.36c-3.03-0.73-6.19-1.11-9.44-1.11c-22.33,0-40.49,18.16-40.49,40.49
			c0,7.6,2.11,14.72,5.77,20.81L10.11,83C3.76,74.36,0,63.69,0,52.14C0,23.34,23.35,0,52.14,0C57.99,0,63.61,0.96,68.86,2.74z"/>
		<path class="st1" d="M84.28,19.29l-4.93,4.13l-4.15,3.48C41.28,9.32,7.22,39.22,17.42,72.94c-3.66-6.08-5.77-13.2-5.77-20.81
			c0-22.33,18.16-40.49,40.49-40.49c3.25,0,6.41,0.38,9.44,1.11l1.72-2.36C70.83,11.23,77.76,14.42,84.28,19.29z"/>
		<path class="st2" d="M93.1,35.24l-11.56,5.39c-27.09-27.47-68.97-1.78-64.13,32.32C7.22,39.22,41.28,9.32,75.21,26.91l4.15-3.48
			C84.39,25.75,88.9,29.94,93.1,35.24z"/>
	</g>
	<g>
		<g>
			<path class="st0" d="M220.64,45.98l-0.37,0.26c-0.13,0.07-0.24,0.11-0.35,0.11h-2.21c-0.28,0-0.52-0.11-0.71-0.35
				c-0.13-0.15-0.19-0.28-0.2-0.39c-0.06-0.13-0.07-0.28-0.07-0.43c0.17-0.56,0.5-0.84,1.02-0.84h0.11l0.43,0.06l0.26,0.13
				l0.26,0.09l0.24,0.07h0.2c0.11-0.02,0.19-0.04,0.24-0.04c0.2-0.06,0.33-0.11,0.41-0.19l0.21-0.17c0.2-0.24,0.32-0.45,0.32-0.61
				l-0.04-0.24l-0.07-0.32c-0.09-0.24-0.24-0.47-0.41-0.65c-0.24-0.24-0.47-0.43-0.69-0.56c-0.58-0.32-1.15-0.48-1.77-0.48h-0.32
				l-0.13,0.02l-0.17,0.04c-0.8,0.17-1.47,0.54-2.01,1.08c-0.6,0.61-0.89,1.3-0.89,2.07c0,0.28,0.06,0.58,0.15,0.89
				c0.09,0.32,0.24,0.6,0.41,0.82h-2.32l-0.38-8.45c-0.02-0.2-0.13-0.41-0.34-0.6c-0.2-0.2-0.43-0.3-0.67-0.28
				c-0.22,0.02-0.41,0.06-0.56,0.11c-0.39,0.15-0.6,0.41-0.58,0.76l0.3,7.46c0.02,0.32-0.09,0.56-0.3,0.73
				c-0.2,0.17-0.47,0.26-0.78,0.26h-1.67c-0.12-0.9-0.45-1.71-0.99-2.42c-0.69-0.91-1.51-1.36-2.46-1.36
				c-0.76,0-1.43,0.28-2.05,0.84c-0.61,0.54-1.04,1.23-1.27,2.05c-0.2,0.39-0.56,0.6-1.06,0.6c-0.17-0.04-0.26-0.06-0.3-0.07
				c-0.04-0.02-0.22-0.13-0.56-0.32c-0.26-0.13-0.47-0.2-0.6-0.2c-0.21,0-0.35,0.06-0.41,0.19c-0.06,0.06-0.07,0.13-0.07,0.19
				l0.48,6.63c0.04,0.41,0.15,0.71,0.34,0.89c0.24,0.24,0.52,0.37,0.82,0.35c0.35-0.02,0.63-0.11,0.86-0.32
				c0.21-0.2,0.32-0.47,0.32-0.76l-0.21-2.4h0.78c0.8,0,1.36-0.45,1.66-1.36l0.28-0.86l0.28-0.71c0.39-0.8,0.76-1.21,1.1-1.21
				c0.21,0,0.37,0.13,0.54,0.37c0.17,0.24,0.24,0.54,0.24,0.89v0.2l-0.04,0.24c-0.02,0.13-0.07,0.22-0.17,0.26l-0.47,0.07
				l-0.26,0.02c-0.09,0.02-0.19,0.02-0.24,0.02c-0.3,0.02-0.56,0.11-0.76,0.32c-0.11,0.13-0.19,0.26-0.22,0.37
				c-0.06,0.11-0.07,0.24-0.07,0.39c0,0.41,0.22,0.76,0.67,1.06c0.39,0.28,0.82,0.41,1.25,0.39c0.34-0.02,0.63-0.06,0.89-0.15
				l0.37-0.19c0.09-0.06,0.19-0.15,0.32-0.24c0.05-0.06,0.09-0.12,0.13-0.18c0.33,0.17,0.69,0.27,1.12,0.27h3.26
				c0.3,0,0.56-0.08,0.79-0.21c0.3,0.14,0.62,0.21,1,0.21h6.87c0.28,0,0.56-0.13,0.87-0.39c0.32-0.28,0.47-0.52,0.47-0.76v-3.03
				L220.64,45.98z"/>
			<path class="st0" d="M196.53,37.98c-0.15-0.06-0.28-0.09-0.39-0.09c-0.24,0.04-0.41,0.07-0.5,0.13l-1.82,0.67l-1.94,0.78
				l-1.04,0.45l-0.91,0.41c-0.32,0.15-0.47,0.48-0.45,1.01l0.02,0.35l0.07,0.35c0.09,0.24,0.19,0.37,0.26,0.43l2.57,2.01l0.73,0.65
				c0.54,0.48,0.8,0.84,0.8,1.04c0,0.13-0.11,0.19-0.32,0.19h-3.54h-0.8l-0.39-0.02c-0.06-0.02-0.13-0.02-0.26-0.02h-0.2l-0.93-0.06
				l-0.84-0.04l-0.39,0.02l-0.39,0.06c-0.8,0.2-1.19,0.78-1.19,1.69c0,0.91,0.33,1.47,0.99,1.69l0.99,0.34
				c0.28,0.13,0.41,0.26,0.41,0.41c-0.02,0.09-0.06,0.2-0.15,0.3c-0.09,0.09-0.17,0.15-0.26,0.19c-0.39,0.17-0.97,0.26-1.71,0.26
				c-0.76,0-1.4-0.11-1.9-0.35c-0.54-0.24-0.82-0.61-0.86-1.08l-0.2-2.62c-0.02-0.24-0.11-0.43-0.24-0.54
				c-0.2-0.17-0.41-0.24-0.63-0.24l-0.13,0.02h-0.09c-0.69,0-1.02,0.34-1.02,0.99l0.15,3.87c0.02,0.61,0.28,1.12,0.78,1.51
				c0.93,0.74,2.44,1.1,4.5,1.08c0.76-0.02,1.41-0.06,1.94-0.13c1.06-0.15,1.94-0.45,2.62-0.91c0.15-0.13,0.26-0.34,0.35-0.63
				c0.09-0.19,0.17-0.39,0.19-0.63c0.02-0.06,0.02-0.19,0.02-0.35c0-0.3-0.09-0.48-0.28-0.56l-0.56-0.11
				c-0.24-0.09-0.37-0.19-0.39-0.24h0.58h0.32h4.71c0.52,0,0.93-0.2,1.25-0.63c0.32-0.43,0.45-0.99,0.41-1.64l-0.04-0.65
				c-0.17-1-0.97-2.29-2.44-3.85c-0.45-0.47-0.78-0.8-1.01-0.97c-0.22-0.17-0.39-0.32-0.52-0.41c-0.15-0.15-0.32-0.28-0.5-0.37
				l0.82-0.37l0.74-0.32l2.44-0.89l0.8-0.34c0.32-0.19,0.47-0.47,0.47-0.82c0-0.28-0.11-0.52-0.32-0.74
				C196.71,38.09,196.6,37.99,196.53,37.98z"/>
			<path class="st0" d="M176.94,43.52c-0.61-0.63-1.23-0.99-1.84-1.06h-0.33c-1.1,0-1.73,0.45-1.88,1.34c0,0.32,0.11,0.56,0.33,0.73
				c0.22,0.17,0.5,0.26,0.82,0.26c0.13,0,0.3-0.07,0.5-0.2c0.11-0.07,0.21-0.11,0.26-0.11l0.09,0.02c0.3,0.13,0.54,0.32,0.71,0.56
				c0.47,0.47,0.69,0.89,0.69,1.3h-4.08v2.31c0,0.39,0.15,0.74,0.45,1.08c0.3,0.32,0.63,0.48,1.01,0.48h3.59
				c0.82-0.15,1.34-0.58,1.54-1.27c0.06-0.19,0.07-0.43,0.07-0.74c-0.02-0.82-0.19-1.66-0.54-2.51
				C177.98,44.82,177.52,44.1,176.94,43.52z"/>
			<path class="st0" d="M169.1,40.45c0.33-0.04,0.56-0.11,0.69-0.24c0.2-0.2,0.3-0.41,0.3-0.61c0-0.58-0.34-0.87-0.99-0.87
				c-0.28,0-0.5,0.07-0.69,0.24c-0.19,0.17-0.28,0.37-0.28,0.63C168.14,40.17,168.45,40.45,169.1,40.45z"/>
			<path class="st0" d="M169.79,42.57c-0.32,0-0.6,0.11-0.82,0.34c-0.24,0.2-0.35,0.48-0.35,0.8l0.19,1.84
				c0,0.13-0.06,0.32-0.19,0.56c-0.15,0.17-0.32,0.24-0.48,0.24h-3.12l-0.16-2.64c-0.06-0.76-0.45-1.14-1.17-1.14
				c-0.32,0-0.6,0.11-0.82,0.34c-0.24,0.2-0.35,0.48-0.35,0.8l0.19,1.84c0,0.13-0.06,0.32-0.19,0.56c-0.15,0.17-0.32,0.24-0.48,0.24
				h-2.98c-0.43,0-0.84-0.06-1.23-0.15c-0.35-0.17-0.54-0.34-0.56-0.54l-0.47-7.76c-0.02-0.24-0.13-0.45-0.34-0.61
				c-0.2-0.17-0.45-0.26-0.69-0.26h-0.13c-0.28,0.06-0.52,0.15-0.71,0.3c-0.19,0.15-0.28,0.37-0.26,0.69l0.56,10.55
				c0.06,0.47,0.28,0.87,0.67,1.19c0.37,0.32,0.8,0.47,1.28,0.47h1.77h0.09h4.15c0.32,0,0.63-0.06,0.91-0.19
				c0.28,0.12,0.59,0.19,0.95,0.19h4.24c0.48,0,0.93-0.13,1.32-0.41c0.45-0.3,0.65-0.69,0.63-1.15l-0.3-4.95
				C170.91,42.95,170.52,42.57,169.79,42.57z"/>
			<path class="st0" d="M161.94,51.14c-0.09-0.02-0.2-0.04-0.37-0.04c-0.28,0-0.5,0.07-0.69,0.24c-0.19,0.17-0.28,0.37-0.28,0.63
				c0,0.24,0.09,0.47,0.28,0.63c0.17,0.17,0.41,0.24,0.69,0.24c0.28,0,0.52-0.09,0.69-0.26c0.17-0.17,0.26-0.37,0.26-0.61
				c0-0.24-0.13-0.48-0.41-0.76C162.07,51.19,162.01,51.15,161.94,51.14z"/>
			<path class="st0" d="M163.89,51.19c-0.28,0.02-0.52,0.11-0.71,0.28c-0.19,0.17-0.28,0.37-0.28,0.61c0,0.24,0.09,0.45,0.3,0.61
				c0.19,0.17,0.41,0.24,0.69,0.24c0.32,0,0.54-0.09,0.69-0.26c0.2-0.17,0.3-0.37,0.28-0.6c-0.02-0.28-0.11-0.5-0.3-0.67
				C164.38,51.25,164.15,51.17,163.89,51.19z"/>
		</g>
	</g>
	<g>
		<path class="st3" d="M35.8,48.18c0.67-0.67,1.48-1.01,2.42-1.01s1.74,0.34,2.42,1.01c0.67,0.67,1.01,1.48,1.01,2.42
			c0,0.94-0.34,1.74-1.01,2.41c-0.67,0.67-1.48,1.01-2.42,1.01s-1.74-0.34-2.42-1.01c-0.67-0.67-1.01-1.48-1.01-2.41
			C34.79,49.65,35.12,48.85,35.8,48.18z M41.26,57.2v17.21h-6.11V57.2H41.26z"/>
		<path class="st3" d="M50.39,46.57v27.84h-6.11V46.57H50.39z"/>
		<path class="st3" d="M59.51,57.2v2.15h0.07c1.36-1.81,3.18-2.72,5.44-2.72c2.73,0,4.68,1.1,5.87,3.29
			c0.58-1.05,1.4-1.86,2.45-2.43c1.05-0.57,2.18-0.86,3.39-0.86c3.91,0,5.87,2.27,5.87,6.81v10.97h-6.11v-8.22
			c0-0.56-0.01-0.96-0.02-1.21c-0.01-0.25-0.06-0.64-0.13-1.17c-0.08-0.54-0.2-0.94-0.35-1.21c-0.16-0.27-0.41-0.52-0.75-0.75
			c-0.35-0.23-0.77-0.35-1.26-0.35c-0.54,0-1,0.11-1.38,0.32c-0.38,0.21-0.67,0.46-0.87,0.74c-0.2,0.28-0.35,0.65-0.45,1.12
			c-0.1,0.47-0.16,0.88-0.18,1.22c-0.02,0.35-0.03,0.78-0.03,1.29v8.22h-6.11v-8.22c0-0.45-0.01-0.79-0.02-1.04
			c-0.01-0.25-0.04-0.59-0.08-1.04c-0.05-0.45-0.12-0.81-0.23-1.07c-0.11-0.27-0.26-0.55-0.45-0.84c-0.19-0.29-0.45-0.5-0.79-0.64
			c-0.34-0.13-0.72-0.2-1.14-0.2c-0.43,0-0.81,0.07-1.14,0.2c-0.34,0.13-0.6,0.35-0.79,0.64c-0.19,0.29-0.34,0.57-0.45,0.84
			c-0.11,0.27-0.19,0.63-0.23,1.07c-0.05,0.45-0.07,0.79-0.08,1.04c-0.01,0.25-0.02,0.59-0.02,1.04v8.22h-6.11V57.2H59.51z"/>
		<path class="st3" d="M91.69,46.57v16.84l6.34-6.21h8.35l-8.62,7.95l9.16,9.26h-8.55l-6.68-7.01v7.01h-6.11V46.57H91.69z"/>
		<path class="st3" d="M108.29,48.18c0.67-0.67,1.48-1.01,2.42-1.01s1.74,0.34,2.42,1.01c0.67,0.67,1.01,1.48,1.01,2.42
			c0,0.94-0.34,1.74-1.01,2.41c-0.67,0.67-1.48,1.01-2.42,1.01s-1.74-0.34-2.42-1.01c-0.67-0.67-1.01-1.48-1.01-2.41
			C107.29,49.65,107.62,48.85,108.29,48.18z M113.76,57.2v17.21h-6.11V57.2H113.76z"/>
		<path class="st3" d="M129.73,74.41V72.5h-0.07c-0.51,0.83-1.24,1.45-2.18,1.86c-0.94,0.41-1.95,0.62-3.02,0.62
			c-2.5,0-4.58-0.9-6.22-2.7c-1.64-1.8-2.47-3.96-2.47-6.49c0-2.53,0.81-4.68,2.43-6.47c1.62-1.79,3.68-2.69,6.19-2.69
			c2.28,0,4.06,0.75,5.33,2.25V46.57h6.11v27.84H129.73z M128.87,63.06c-0.7-0.75-1.66-1.12-2.87-1.12c-1.21,0-2.16,0.38-2.87,1.12
			c-0.7,0.75-1.06,1.67-1.06,2.77c0,1.12,0.35,2.04,1.06,2.77c0.71,0.73,1.66,1.09,2.87,1.09c1.21,0,2.16-0.36,2.87-1.09
			c0.71-0.73,1.06-1.65,1.06-2.77C129.93,64.73,129.58,63.81,128.87,63.06z"/>
		<path class="st3" d="M138.55,57.2h6.11v9.19c0,1.21,0.22,2.13,0.65,2.77s1.24,0.96,2.4,0.96s1.96-0.32,2.4-0.96
			s0.65-1.56,0.65-2.77V57.2h6.11v10.37c0,4.94-3.05,7.42-9.16,7.42s-9.16-2.47-9.16-7.42V57.2z"/>
		<path class="st3" d="M165.86,57.2v2.21h0.07c1.25-1.86,3.09-2.78,5.5-2.78c2.21,0,3.85,0.63,4.9,1.9
			c1.05,1.26,1.58,3.01,1.58,5.25v10.64h-6.11v-8.39c0-0.05,0-0.22,0-0.52s0-0.5,0-0.6c0-0.1-0.01-0.29-0.02-0.57
			c-0.01-0.28-0.03-0.49-0.07-0.62c-0.03-0.13-0.08-0.32-0.15-0.57c-0.07-0.25-0.15-0.42-0.23-0.54c-0.09-0.11-0.21-0.25-0.35-0.42
			s-0.31-0.29-0.49-0.37c-0.18-0.08-0.39-0.15-0.64-0.22c-0.25-0.07-0.51-0.1-0.81-0.1c-2.12,0-3.19,1.33-3.19,3.99v8.92h-6.11V57.2
			H165.86z"/>
		<path class="st3" d="M186.73,72.06l-8.32-14.86h7.05l4.6,8.82l4.5-8.82h6.94L187.7,83h-6.84L186.73,72.06z"/>
		<path class="st3" d="M220.68,57.2v17.21h-6.11V72.5h-0.07c-0.51,0.83-1.24,1.45-2.18,1.86c-0.94,0.41-1.95,0.62-3.02,0.62
			c-2.5,0-4.58-0.9-6.22-2.7c-1.64-1.8-2.47-3.96-2.47-6.49c0-2.53,0.81-4.68,2.43-6.47c1.62-1.79,3.68-2.69,6.19-2.69
			c2.28,0,4.06,0.75,5.33,2.25V57.2H220.68z M213.71,63.06c-0.7-0.75-1.66-1.12-2.87-1.12c-1.21,0-2.16,0.38-2.87,1.12
			c-0.7,0.75-1.06,1.67-1.06,2.77c0,1.12,0.35,2.04,1.06,2.77c0.71,0.73,1.66,1.09,2.87,1.09c1.21,0,2.16-0.36,2.87-1.09
			c0.71-0.73,1.06-1.65,1.06-2.77C214.77,64.73,214.42,63.81,213.71,63.06z"/>
	</g>
</g>
</svg>
